<svg version="1.1" xmlns="http://www.w3.org/2000/svg" viewBox="0 0 200 120">
	<path style="fill:#F9DDBF" d="M112.3,13.4c0.1,0.7-3.5,2.7-4.5,3.7c-0.6,0.6-1.1,1.2-1.5,1.8l-3.8-0.4c0.1-1,0.2-2.1,0.2-3c0-1.7-1.5-5-1.1-5.1c1.2-0.1,2.5,3.3,3,3.2c0.6-0.2,2.7-5.8,3.6-5.8c0.8-0.1-1,4-1,4s3-3.3,3.7-2.7c0.4,0.4,0.4,1.2,0.7,1.2c0.9,0.1-1.2,2.6-2,3.7C109.1,14.6,112.2,12.9,112.3,13.4z"/>
	<circle style="fill:#99C9EE" cx="97.5" cy="65.2" r="49.4"/>
	<linearGradient id="_1" gradientUnits="userSpaceOnUse" x1="73.0331" y1="33.6562" x2="105.4145" y2="33.6562" gradientTransform="matrix(0.9973 7.382048e-02 -7.382048e-02 0.9973 3.2735 -5.4358)">
		<stop offset="0" style="stop-color:#005A9F"/>
		<stop offset="6.862456e-02" style="stop-color:#005DA5"/>
		<stop offset="0.4257" style="stop-color:#006CBF"/>
		<stop offset="0.7471" style="stop-color:#0075CE"/>
		<stop offset="1" style="stop-color:#0078D4"/>
	</linearGradient>
	<path style="fill:url(#_1)" d="M95.6,36.7c-6.5,4.6-19.3,4.6-19.3,4.6c-2.4,0.2-4.1,3.1-3.4,5.4c0.7,2.2,2.3,5.4,4.7,5.3c0,0,16,1.1,23.9-7.8c3.6-4.1,6.2-19.4,5.2-25.9l-4.2-1C102.4,17.4,100.8,33,95.6,36.7z"/>
	<radialGradient id="_11_" cx="62.6637" cy="67.6699" r="12.9015" gradientUnits="userSpaceOnUse">
		<stop offset="0" style="stop-color:#005A9F"/>
		<stop offset="0.9094" style="stop-color:#0078D4"/>
	</radialGradient>
	<path style="fill:url(#_11_)" d="M84.3,93.8C83,94.2,66.6,93.7,56.7,93c-0.4-0.6-0.9-1.3-1.3-2c-0.1-0.2-0.2-0.3-0.3-0.5c-1.4-2.4-2.6-4.9-3.6-7.5c0,0,0-0.1-0.1-0.2c0.5-2.5,0.9-5.1,1.2-7.1c0.3-2.2-0.1-6.5-0.6-13.3C51.9,57.6,51.9,52,54,47c0.7-1.6,4.1-5.9,7.7-6.2c2.1-0.2,5.8-0.4,8.5-0.3c3.5,0.5,5,0.3,6.9,1c2.9,0.9,5.7,6.4,6.2,10.9c0.9,5.3-0.5,9.5-1.7,12.8c-1.6,2.6-3,4.5-3.8,9.7C77.8,78.9,82.6,85.1,84.3,93.8z"/>
	<g transform="matrix(1, 0, 0, 1, -19.95,158.8) ">
		<radialGradient id="_12_" cx="98.1739" cy="-135.0319" r="17.236" gradientUnits="userSpaceOnUse">
			<stop offset="0.1135" style="stop-color:#9A6541"/>
			<stop offset="0.9994" style="stop-color:#F9DDBF"/>
		</radialGradient>
		<path style="fill:url(#_12_)" d="M88.4-116.5c1.8,0.1,3.4,0.1,4.7,0c0.6,0,3.6-0.7,3.1-1c-1.3-0.9-0.6-2.9-0.2-5.3l1.8-6.4l-8.9-1.5l-0.7,5.1c-0.4,3.3-3.2,6.9-5,7.6C84-117.2,85.8-116.6,88.4-116.5z"/>
	</g>
	<path style="fill:#F9DDBF" d="M99.6,76.3c2.9,0.2,4,0.3,6.1,0.7c3,0.7,8.1,2.1,8.3,1.3c0.1-0.3-1.7-1.4-1.7-1.4s1.6,0.6,1.7,0.2c0.1-0.4-2.8-2.2-3.6-3.1c1,0.1,3.7,0.3,3.7-0.4c0-0.5-3.5-0.8-5.9-1.4c-6.8-0.6-8.5-0.4-10.6-0.1c-2,0.3-3,3.3-1,3.9C97.5,76.3,98.6,76.2,99.6,76.3z"/>
	<path style="fill:#0078D4" d="M69.3,68.9c-2.3-1.7-3.2-9.2-3.4-12.9c0-0.3-0.5-7.8-6.4-8.1c-5.9-0.3-6.8,6.6-6.8,6.6s0.4,11.3,1.9,16.1c1.5,4.7,4.1,9.2,13.1,10.4c12.2,1.6,31-4.3,31-4.3l0.4-4.8C98.9,71.8,78.3,75.6,69.3,68.9z"/>
	<path style="fill:#FFD566" d="M143.6,83c-1,2.6-2.2,5.1-3.7,7.5c-0.1,0.2-0.2,0.3-0.3,0.5H55.4c-0.1-0.2-0.2-0.3-0.3-0.5c-1.4-2.4-2.6-4.9-3.6-7.5H143.6z"/>
	<linearGradient id="_15_" gradientUnits="userSpaceOnUse" x1="97.535" y1="90.48" x2="97.535" y2="114.58">
		<stop offset="0" style="stop-color:#F7B548"/>
		<stop offset="1" style="stop-color:#FFD566"/>
	</linearGradient>
	<path style="fill:url(#_15_)" d="M140,90.5c-0.1,0.2-0.2,0.3-0.3,0.5c-8.7,14.1-24.3,23.6-42.1,23.6c-17.8,0-33.4-9.4-42.1-23.6c-0.1-0.2-0.2-0.3-0.3-0.5H140z"/>
	<circle id="_1_" style="fill:none" cx="97.5" cy="65.2" r="49.3"/>
	<path style="fill:#B3AFAB" d="M100.3,83.3h48.3c0.7,0,1.3-0.6,1.3-1.3v0c0-0.7-0.6-1.3-1.3-1.3h-48.3c-0.7,0-1.3,0.6-1.3,1.3v0C99,82.7,99.6,83.3,100.3,83.3z"/>
	<g style="opacity:0.5">
		<path style="fill:#BF8F68" d="M76.6,34.6c-0.6,0.6-1.6,0.6-2.3,0.3c-0.4-0.1-0.7-0.4-1-0.7c-0.3-0.3-0.5-0.7-0.5-1.1c0-0.1,0.1-0.2,0.2-0.2c0.1,0,0.1,0,0.1,0l0,0c0.5,0.4,1,0.6,1.5,0.8c0.5,0.2,1,0.3,1.7,0.4l0,0c0.1,0,0.2,0.1,0.2,0.3C76.7,34.5,76.6,34.6,76.6,34.6z"/>
	</g>
	<linearGradient id="_17_" gradientUnits="userSpaceOnUse" x1="136.4786" y1="58.8326" x2="136.4786" y2="80.9176">
		<stop offset="0" style="stop-color:#B3AFAB"/>
		<stop offset="0.3156" style="stop-color:#B0ACA8"/>
		<stop offset="0.5506" style="stop-color:#A7A39F"/>
		<stop offset="0.7594" style="stop-color:#96938F"/>
		<stop offset="0.9518" style="stop-color:#807D7A"/>
		<stop offset="1" style="stop-color:#797673"/>
	</linearGradient>
	<path style="fill:url(#_17_)" d="M115,80.9h35.9l7.1-20.5c0.3-0.8-0.3-1.6-1.1-1.6h-33.1c-0.7,0-1.3,0.4-1.5,1.1L115,80.9z"/>
	<linearGradient id="_19_" gradientUnits="userSpaceOnUse" x1="542.5959" y1="944.1316" x2="549.5135" y2="953.2665" gradientTransform="matrix(0.951 0.3092 -0.3092 0.951 -166.6438 -1060.0591)">
		<stop offset="0.2689" style="stop-color:#594539"/>
		<stop offset="0.8111" style="stop-color:#463228"/>
	</linearGradient>
	<circle style="fill:url(#_19_)" cx="59.5" cy="11.5" r="5.7"/>
	<circle style="fill:#59453C" cx="73.1" cy="21.6" r="15.5"/>
	<ellipse transform="matrix(2.494613e-02 -0.9997 0.9997 2.494613e-02 46.7436 97.0535)" style="fill:#F9DDBF" cx="73.1" cy="24.6" rx="13.5" ry="11.6"/>
	<path style="fill:#F9DDBF" d="M60.8,23.9c-0.7,0.5-1.1,1.2-1.2,2c-0.1,0.9,0.1,1.6,0.6,2.2c0.5,0.7,1.2,1.1,2,1.2c0.9,0.1,1.7-0.1,2.3-0.6c0.6-0.4,1-1.1,1.2-2c0.1-0.8-0.1-1.6-0.6-2.3c-0.5-0.6-1.2-1-2.1-1.1C62.2,23.2,61.5,23.4,60.8,23.9z"/>
	<path style="fill:#F9DDBF" d="M81.4,24.4c-0.7,0.5-1.1,1.2-1.2,2c-0.1,0.9,0.1,1.6,0.6,2.2c0.5,0.7,1.2,1.1,2,1.2c0.9,0.1,1.7-0.1,2.3-0.6c0.6-0.4,1-1.1,1.2-2c0.1-0.8-0.1-1.6-0.6-2.3c-0.5-0.6-1.2-1-2.1-1.1C82.8,23.7,82.1,23.9,81.4,24.4z"/>
	<g transform="matrix(0.980255126953125, -0.1976470947265625, 0.1976470947265625, 0.980255126953125, -1165.65,-114.2) ">
		<path style="fill:#594539" d="M1178.8,367.5c-3.6,3.2-5.3,7-5.2,11.5c2.3-2.1,4-0.9,6.5-1c3.3-0.1,6.6,0.8,9.4-1c3.7-2.4,5.1-7.3,5.4-9.9C1195,366.3,1184.4,362.8,1178.8,367.5z"/>
	</g>
	<g transform="matrix(0.980255126953125, -0.1976470947265625, 0.1976470947265625, 0.980255126953125, -1164,-114.5) ">
		<path style="fill:#594539" d="M1192.2,369c-1.6,2.3-3.4,11.6,6,14.3c1-3.8,2.3-7.5,0.8-11.1C1197.5,369,1194.7,365.4,1192.2,369z"/>
	</g>
	<radialGradient id="_2" cx="73.7467" cy="28.8288" r="4.5874" gradientTransform="matrix(0.9997 2.494613e-02 -2.494613e-02 0.9997 0.5922 -1.7848)" gradientUnits="userSpaceOnUse">
		<stop offset="0" style="stop-color:#9A6541;stop-opacity:0.8471"/>
		<stop offset="1" style="stop-color:#F9DDBF;stop-opacity:0"/>
	</radialGradient>
	<polygon style="fill:url(#_2)" points="72.8,22.2 72.9,33.3 79,33.5 79,22.2"/>
	<path style="fill:#FFFFFF" d="M78.1,31.3c-1.2,0-2.4-0.5-3.2-1.4c-0.9-0.9-1.3-2.1-1.3-3.3c0-2.6,2.2-4.6,4.7-4.6c1.3,0,2.4,0.5,3.3,1.4c0.9,0.9,1.3,2.1,1.3,3.3l0,0C82.8,29.3,80.7,31.3,78.1,31.3C78.1,31.3,78.1,31.3,78.1,31.3z M78.3,23.1C78.3,23.1,78.3,23.1,78.3,23.1c-2,0-3.6,1.5-3.6,3.5c0,0.9,0.3,1.8,1,2.5c0.6,0.7,1.5,1,2.4,1.1c0,0,0,0,0,0c1.9,0,3.6-1.5,3.6-3.5c0-0.9-0.3-1.8-1-2.5C80.1,23.5,79.2,23.1,78.3,23.1z"/>
	<path style="fill:#F9DDBF" d="M73.7,26.1c0,0,0.1,1.4,1.2,2.7c0.4,0.5,0.4,1.4-0.1,2c-0.4,0.5-2,1-2.1,1.2L70.6,32l0.3-6L73.7,26.1z"/>
	<path style="fill:#FFFFFF" d="M67.9,31.2c-1.2,0-2.4-0.5-3.2-1.4c-0.9-0.9-1.3-2.1-1.3-3.3c0-2.6,2.2-4.6,4.7-4.6c2.6,0,4.6,2.2,4.6,4.7c0,1.2-0.5,2.4-1.4,3.3C70.4,30.7,69.3,31.2,67.9,31.2C68,31.2,68,31.2,67.9,31.2z M68.2,23C68.1,23,68.1,23,68.2,23c-2,0-3.6,1.5-3.6,3.5c0,0.9,0.3,1.8,1,2.5c0.6,0.7,1.5,1,2.4,1.1c0,0,0,0,0,0c0.9,0,1.8-0.3,2.5-1s1.1-1.5,1.1-2.5C71.6,24.6,70.1,23,68.2,23z"/>
	<path style="fill:#FFFFFF" d="M72.2,26.1c-0.3,0-0.6-0.3-0.6-0.6c0-0.3,0.3-0.6,0.6-0.6l1.9,0c0.3,0,0.6,0.3,0.6,0.6c0,0.3-0.3,0.6-0.6,0.6L72.2,26.1C72.2,26.1,72.2,26.1,72.2,26.1z"/>
	<ellipse transform="matrix(2.922281e-02 -0.9996 0.9996 2.922281e-02 40.0102 93.9219)" style="fill:#33312D" cx="68.4" cy="26.4" rx="1.6" ry="0.8"/>
	<ellipse transform="matrix(2.922281e-02 -0.9996 0.9996 2.922281e-02 48.8997 103.6272)" style="fill:#33312D" cx="77.8" cy="26.6" rx="1.6" ry="0.8"/>
	<g style="opacity:0.5">
		<path style="fill:#BF8F68" d="M74.5,34c-0.4,0.2-0.8,0.4-1.2,0.4c-0.4,0.1-0.9,0-1.3,0c-0.4-0.1-0.9-0.3-1.2-0.6c-0.4-0.3-0.6-0.6-0.8-1c-0.1-0.2,0-0.4,0.2-0.5c0.1-0.1,0.3,0,0.4,0l0.1,0c0.3,0.2,0.6,0.4,0.8,0.5c0.3,0.1,0.6,0.2,0.9,0.3c0.3,0.1,0.6,0.1,0.9,0.1c0.3,0,0.7,0,1,0l0.1,0c0.2,0,0.4,0.2,0.4,0.4C74.7,33.8,74.6,33.9,74.5,34z"/>
	</g>
	<path style="fill:#F9DDBF" d="M112.3,13.4c0.1,0.7-3.5,2.7-4.5,3.7c-0.4,0.4-0.8,0.9-1.1,1.3v0l-4.2-1c0-0.7,0.1-1.3,0.1-1.9c0-1.7-1.5-5-1.1-5.1c1.2-0.1,2.5,3.3,3,3.2c0.6-0.2,2.7-5.8,3.6-5.8c0.8-0.1-1,4-1,4s3-3.3,3.7-2.7c0.4,0.4,0.4,1.2,0.7,1.2c0.9,0.1-1.2,2.6-2,3.7C109.1,14.6,112.2,12.8,112.3,13.4z"/>
	<path style="fill:none;stroke:#E1DFDD;stroke-width:0.75;stroke-linecap:round;stroke-linejoin:round;stroke-miterlimit:10" d="M63,40.4c2.4,2.1,4.9,4.6,6.9,6.9c1,1.2,2,2.5,3,3.7c0.7,1,1.3,2.1,2.3,2.8c0.7,0.5,1.7,0.6,2.5,0.2c0.7-0.4,1-1.2,1.1-1.9 c0.2-1.3,0-2.6-0.3-3.9c-0.2-1.2-0.5-2.3-0.8-3.4c-0.3-1.2-0.7-2.4-1.1-3.5"/>
	<path style="fill:#FFFFFF" d="M79.8,60.5L76,61c-0.2,0-0.5-0.1-0.5-0.4l-0.8-6.1c0-0.2,0.1-0.5,0.4-0.5l3.8-0.5c0.2,0,0.5,0.1,0.5,0.4l0.8,6.1C80.2,60.2,80,60.4,79.8,60.5z"/>
</svg>