<svg xmlns="http://www.w3.org/2000/svg" viewBox="0 0 14.04 14.04">
	<path d="M7 6.36H7L3 4.06A.13.13 0 012.92 4 .1.1 0 013 3.85l4-2.28a.13.13 0 01.12 0l4 2.29a.13.13 0 01.06.11.11.11 0 01-.06.1L7.07 6.35H7" fill="#3999c6"/>
	<path d="M7.56 11.94a.11.11 0 01-.12-.12V7.26a.11.11 0 01.06-.1l4-2.29a.13.13 0 01.12 0 .11.11 0 01.06.1v4.56a.13.13 0 01-.06.11l-4 2.28-.06 0m-1.12 0-.06 0-4-2.28a.13.13 0 01-.06-.11V5a.11.11 0 01.06-.11.13.13 0 01.12 0l4 2.29a.1.1 0 01.06.1v4.59a.11.11 0 01-.06.1l-.06 0" fill="#59b4d9"/>
	<path d="M7.56 11.94a.11.11 0 01-.12-.12V7.26a.11.11 0 01.06-.1l4-2.29a.13.13 0 01.12 0 .11.11 0 01.06.1v4.56a.13.13 0 01-.06.11l-4 2.28-.06 0" fill="#fff" opacity=".498"/>
	<path d="M11.17 1.55a.39.39 0 01.2.06l1.84 1.06a1.14 1.14 0 01.54.93v6.8a1.14 1.14 0 01-.54.93l-1.84 1.06a.4.4 0 01-.3 0 .36.36 0 01-.23-.19.33.33 0 010-.29.37.37 0 01.17-.24l1.85-1.06A.38.38 0 0013 10.4V3.6a.38.38 0 00-.14-.25L11 2.29a.37.37 0 01-.18-.45.36.36 0 01.38-.29zM2.83 12.45a.39.39 0 01-.2-.06L.79 11.33a1.14 1.14 0 01-.54-.93V3.6a1.14 1.14 0 01.54-.93L2.63 1.61a.4.4 0 01.3 0 .36.36 0 01.23.19.33.33 0 010 .29A.37.37 0 013 2.29L1.18 3.35A.38.38 0 001 3.6v6.8a.38.38 0 00.14.25L3 11.71a.37.37 0 01.18.45.36.36 0 01-.38.29z" fill="#7a7a7a"/>
</svg>